<?xml version="1.0" encoding="utf-8"?>
<!-- Generator: Adobe Illustrator 18.0.0, SVG Export Plug-In . SVG Version: 6.00 Build 0)  -->
<!DOCTYPE svg PUBLIC "-//W3C//DTD SVG 1.1//EN" "http://www.w3.org/Graphics/SVG/1.1/DTD/svg11.dtd">
<svg version="1.1" xmlns="http://www.w3.org/2000/svg" xmlns:xlink="http://www.w3.org/1999/xlink" x="0px" y="0px"
	 viewBox="0 0 720.5 417.8" enable-background="new 0 0 720.5 417.8" xml:space="preserve">
<g id="fons" display="none">
	<g display="inline">
		<rect x="-13.3" y="-15.3" fill="#050606" width="745.8" height="453.8"/>
	</g>
	<g display="inline">
		
			<rect x="-13.3" y="-15.3" fill="#050606" stroke="#010101" stroke-width="3" stroke-miterlimit="10" width="745.8" height="453.8"/>
	</g>
	<g display="inline">
		<rect x="-13.3" y="-15.3" fill="none" stroke="#010101" stroke-width="3" stroke-miterlimit="10" width="745.8" height="453.8"/>
	</g>
</g>
<g id="negre" display="none">
	<polygon display="inline" fill="#FFFFFF" stroke="#010101" stroke-width="4" stroke-miterlimit="10" points="242.3,-49.2 
		480.1,-461 717.9,-49.2 	"/>
	<polygon display="inline" fill="#FFFFFF" stroke="#010101" stroke-width="3" stroke-miterlimit="10" points="301.3,-49.7 
		479.9,-354.2 658.5,-49.7 	"/>
	<polygon display="inline" fill="#FFFFFF" stroke="#010101" stroke-width="2" stroke-miterlimit="10" points="360,-50.2 
		480.6,-251.1 601.2,-50.2 	"/>
	<polygon display="inline" fill="#010101" stroke="#010101" stroke-width="4" stroke-miterlimit="10" points="5.5,-49.2 243.3,-461 
		481.1,-49.2 	"/>
</g>
<g id="blanc">
	<polygon stroke="#FFFFFF" stroke-width="4" stroke-miterlimit="10" points="241.3,415.8 479.1,4 716.9,415.8 	"/>
	<polygon stroke="#FFFFFF" stroke-width="3" stroke-miterlimit="10" points="300.3,415.3 478.9,110.8 657.5,415.3 	"/>
	<polygon stroke="#FFFFFF" stroke-width="2" stroke-miterlimit="10" points="359,414.8 479.6,213.9 600.2,414.8 	"/>
	<polygon fill="#FFFFFF" stroke="#FFFFFF" stroke-width="4" stroke-miterlimit="10" points="4.5,415.8 242.3,4 480.1,415.8 	"/>
</g>
</svg>
