<?xml version="1.0" encoding="utf-8"?>
<!-- Generator: Adobe Illustrator 16.0.5, SVG Export Plug-In . SVG Version: 6.00 Build 0)  -->
<!DOCTYPE svg PUBLIC "-//W3C//DTD SVG 1.1//EN" "http://www.w3.org/Graphics/SVG/1.1/DTD/svg11.dtd">
<svg version="1.1" id="Layer_1" xmlns="http://www.w3.org/2000/svg" xmlns:xlink="http://www.w3.org/1999/xlink" x="0px" y="0px"
	 width="688px" height="438px" viewBox="-35.167 -30.5 688 438" enable-background="new -35.167 -30.5 688 438"
	 xml:space="preserve">
<g id="dibuixat_linies">
	<path fill="none" stroke="#1C1C1C" stroke-width="35" stroke-miterlimit="10" d="M5.25,143.642c326,0.5,282.317,0,605.806,0.5"/>
	<path fill="none" stroke="#1C1C1C" stroke-width="35" stroke-miterlimit="10" d="M3.75,353.143c202.896-349.06,0,0,202.896-349.06"
		/>
	<path fill="none" stroke="#1C1C1C" stroke-width="35" stroke-miterlimit="10" d="M206.75,4.142
		c202.591,349.516,0,0,202.591,349.516"/>
	<path fill="none" stroke="#1C1C1C" stroke-width="35" stroke-miterlimit="10" d="M409.341,353.916
		c-405.778-0.516,0.104,0-405.591-0.516"/>
	<path fill="none" stroke="#1C1C1C" stroke-width="35" stroke-miterlimit="10" d="M307.498,177.958
		c102.332-173.875,0,0,102.332-173.875"/>
	<path fill="none" stroke="#1C1C1C" stroke-width="35" stroke-miterlimit="10" d="M409.748,4.142
		c201.308,349.516,0,0,201.308,349.516"/>
	<path fill="none" stroke="#1C1C1C" stroke-width="35" stroke-miterlimit="10" d="M611.056,353.658c-201.715,0,0,0-201.715,0"/>
</g>
</svg>
