<?xml version="1.0" encoding="utf-8"?>
<!-- Generator: Adobe Illustrator 16.0.5, SVG Export Plug-In . SVG Version: 6.00 Build 0)  -->
<!DOCTYPE svg PUBLIC "-//W3C//DTD SVG 1.1//EN" "http://www.w3.org/Graphics/SVG/1.1/DTD/svg11.dtd">
<svg version="1.1" id="Layer_1" xmlns="http://www.w3.org/2000/svg" xmlns:xlink="http://www.w3.org/1999/xlink" x="0px" y="0px"
	 width="614.666px" height="358px" viewBox="0 0 614.666 358" enable-background="new 0 0 614.666 358" xml:space="preserve">
<g id="dibuixat_linies">
	<path fill="none" stroke="#F7F7F7" stroke-width="5" stroke-miterlimit="10" d="M5.18,143.642c326,0.5,282.318,0,605.807,0.5"/>
	<path fill="none" stroke="#F7F7F7" stroke-width="5" stroke-miterlimit="10" d="M3.68,353.142c202.897-349.059,0,0,202.897-349.059
		"/>
	<path fill="none" stroke="#F7F7F7" stroke-width="5" stroke-miterlimit="10" d="M206.68,4.142c202.592,349.516,0,0,202.592,349.516
		"/>
	<path fill="none" stroke="#F7F7F7" stroke-width="5" stroke-miterlimit="10" d="M409.271,353.916
		c-405.779-0.516,0.104,0-405.592-0.516"/>
	<path fill="none" stroke="#F7F7F7" stroke-width="5" stroke-miterlimit="10" d="M307.43,177.958
		c102.332-173.875,0,0,102.332-173.875"/>
	<path fill="none" stroke="#F7F7F7" stroke-width="5" stroke-miterlimit="10" d="M409.68,4.142c201.307,349.516,0,0,201.307,349.516
		"/>
	<path fill="none" stroke="#F7F7F7" stroke-width="5" stroke-miterlimit="10" d="M610.986,353.658c-201.715,0,0,0-201.715,0"/>
</g>
</svg>
